<mxfile host="Electron" modified="2024-04-19T07:40:23.416Z" agent="Mozilla/5.0 (Windows NT 10.0; Win64; x64) AppleWebKit/537.36 (KHTML, like Gecko) draw.io/22.0.2 Chrome/114.0.5735.289 Electron/25.8.4 Safari/537.36" etag="6jj-l-eW5SmU8YkRh6d6" version="22.0.2" type="device">
  <diagram name="第 1 页" id="TXvhX6VAukvptAocqNGN">
    <mxGraphModel dx="2375" dy="902" grid="1" gridSize="10" guides="1" tooltips="1" connect="1" arrows="1" fold="1" page="1" pageScale="1" pageWidth="827" pageHeight="1169" math="0" shadow="0">
      <root>
        <mxCell id="0" />
        <mxCell id="1" parent="0" />
        <mxCell id="mOLojI1wZqAIwk1azhFG-70" value="" style="rounded=0;whiteSpace=wrap;html=1;fontStyle=1" parent="1" vertex="1">
          <mxGeometry x="-80" y="122" width="680" height="248" as="geometry" />
        </mxCell>
        <mxCell id="U4DfO-0JBwhDxarbV-OK-16" value="&lt;font style=&quot;font-size: 15px;&quot;&gt;Model A&lt;/font&gt;" style="text;html=1;strokeColor=none;fillColor=none;align=center;verticalAlign=middle;whiteSpace=wrap;rounded=0;fontStyle=1" parent="1" vertex="1">
          <mxGeometry x="-80" y="137.25" width="100" height="30" as="geometry" />
        </mxCell>
        <mxCell id="wY_aJ2qnTKB5tE3JuGZU-3" value="&lt;font style=&quot;font-size: 15px;&quot;&gt;Model B&lt;/font&gt;" style="text;html=1;strokeColor=none;fillColor=none;align=center;verticalAlign=middle;whiteSpace=wrap;rounded=0;fontStyle=1" parent="1" vertex="1">
          <mxGeometry x="-80" y="197" width="100" height="30" as="geometry" />
        </mxCell>
        <mxCell id="wY_aJ2qnTKB5tE3JuGZU-8" value="" style="rounded=0;whiteSpace=wrap;html=1;dashed=1;fontStyle=1" parent="1" vertex="1">
          <mxGeometry x="30" y="195" width="560" height="34" as="geometry" />
        </mxCell>
        <mxCell id="wY_aJ2qnTKB5tE3JuGZU-9" value="" style="rounded=0;whiteSpace=wrap;html=1;dashed=1;fontStyle=1" parent="1" vertex="1">
          <mxGeometry x="30" y="135" width="560" height="34" as="geometry" />
        </mxCell>
        <mxCell id="wY_aJ2qnTKB5tE3JuGZU-10" value="&lt;font style=&quot;font-size: 15px;&quot;&gt;A1&lt;/font&gt;" style="rounded=0;whiteSpace=wrap;html=1;fillColor=#fff2cc;strokeColor=#d6b656;fontStyle=1" parent="1" vertex="1">
          <mxGeometry x="50" y="142" width="40" height="20" as="geometry" />
        </mxCell>
        <mxCell id="wY_aJ2qnTKB5tE3JuGZU-11" value="&lt;font style=&quot;font-size: 15px;&quot;&gt;A2&lt;/font&gt;" style="rounded=0;whiteSpace=wrap;html=1;fillColor=#fff2cc;strokeColor=#d6b656;fontStyle=1" parent="1" vertex="1">
          <mxGeometry x="110" y="142" width="40" height="20" as="geometry" />
        </mxCell>
        <mxCell id="wY_aJ2qnTKB5tE3JuGZU-12" value="&lt;font style=&quot;font-size: 15px;&quot;&gt;A3&lt;/font&gt;" style="rounded=0;whiteSpace=wrap;html=1;fillColor=#fff2cc;strokeColor=#d6b656;fontStyle=1" parent="1" vertex="1">
          <mxGeometry x="160" y="142.25" width="40" height="20" as="geometry" />
        </mxCell>
        <mxCell id="wY_aJ2qnTKB5tE3JuGZU-13" value="&lt;font style=&quot;font-size: 15px;&quot;&gt;A4&lt;/font&gt;" style="rounded=0;whiteSpace=wrap;html=1;fillColor=#fff2cc;strokeColor=#d6b656;fontStyle=1" parent="1" vertex="1">
          <mxGeometry x="211" y="142.25" width="60" height="20" as="geometry" />
        </mxCell>
        <mxCell id="wY_aJ2qnTKB5tE3JuGZU-14" value="&lt;font style=&quot;font-size: 15px;&quot;&gt;B1&lt;/font&gt;" style="rounded=0;whiteSpace=wrap;html=1;fillColor=#dae8fc;strokeColor=#6c8ebf;fontStyle=1" parent="1" vertex="1">
          <mxGeometry x="291" y="203.13" width="30" height="20" as="geometry" />
        </mxCell>
        <mxCell id="wY_aJ2qnTKB5tE3JuGZU-15" value="&lt;font style=&quot;font-size: 15px;&quot;&gt;B2&lt;/font&gt;" style="rounded=0;whiteSpace=wrap;html=1;fillColor=#dae8fc;strokeColor=#6c8ebf;fontStyle=1" parent="1" vertex="1">
          <mxGeometry x="339" y="203.13" width="30" height="20" as="geometry" />
        </mxCell>
        <mxCell id="wY_aJ2qnTKB5tE3JuGZU-16" value="&lt;font style=&quot;font-size: 15px;&quot;&gt;B3&lt;/font&gt;" style="rounded=0;whiteSpace=wrap;html=1;fillColor=#dae8fc;strokeColor=#6c8ebf;fontStyle=1" parent="1" vertex="1">
          <mxGeometry x="419" y="203.13" width="60" height="20" as="geometry" />
        </mxCell>
        <mxCell id="mOLojI1wZqAIwk1azhFG-4" value="" style="rounded=0;whiteSpace=wrap;html=1;fillColor=#fff2cc;strokeColor=#d6b656;shadow=0;glass=0;fillStyle=zigzag-line;fontStyle=1" parent="1" vertex="1">
          <mxGeometry x="90" y="142.25" width="20" height="20" as="geometry" />
        </mxCell>
        <mxCell id="mOLojI1wZqAIwk1azhFG-5" value="" style="rounded=0;whiteSpace=wrap;html=1;fillColor=#fff2cc;strokeColor=#d6b656;fillStyle=zigzag-line;fontStyle=1" parent="1" vertex="1">
          <mxGeometry x="150" y="142.25" width="10" height="20" as="geometry" />
        </mxCell>
        <mxCell id="mOLojI1wZqAIwk1azhFG-6" value="" style="rounded=0;whiteSpace=wrap;html=1;fillColor=#fff2cc;strokeColor=#d6b656;fillStyle=zigzag-line;fontStyle=1" parent="1" vertex="1">
          <mxGeometry x="200" y="142.25" width="10" height="20" as="geometry" />
        </mxCell>
        <mxCell id="mOLojI1wZqAIwk1azhFG-7" value="" style="rounded=0;whiteSpace=wrap;html=1;fillColor=#fff2cc;strokeColor=#d6b656;fillStyle=zigzag-line;fontStyle=1" parent="1" vertex="1">
          <mxGeometry x="271" y="142.25" width="19" height="20" as="geometry" />
        </mxCell>
        <mxCell id="mOLojI1wZqAIwk1azhFG-8" value="" style="rounded=0;whiteSpace=wrap;html=1;fillColor=#dae8fc;strokeColor=#6c8ebf;fillStyle=zigzag-line;fontStyle=1" parent="1" vertex="1">
          <mxGeometry x="321" y="203.13" width="17" height="20" as="geometry" />
        </mxCell>
        <mxCell id="mOLojI1wZqAIwk1azhFG-9" value="" style="rounded=0;whiteSpace=wrap;html=1;fillColor=#dae8fc;strokeColor=#6c8ebf;fillStyle=zigzag-line;fontStyle=1" parent="1" vertex="1">
          <mxGeometry x="369" y="203.13" width="50" height="20" as="geometry" />
        </mxCell>
        <mxCell id="mOLojI1wZqAIwk1azhFG-11" value="" style="rounded=0;whiteSpace=wrap;html=1;fillColor=#dae8fc;strokeColor=#6c8ebf;fillStyle=zigzag-line;fontStyle=1" parent="1" vertex="1">
          <mxGeometry x="479" y="203.13" width="50" height="20" as="geometry" />
        </mxCell>
        <mxCell id="mOLojI1wZqAIwk1azhFG-13" value="A1" style="rounded=0;whiteSpace=wrap;html=1;fillColor=#fff2cc;strokeColor=#d6b656;shadow=0;glass=0;fillStyle=zigzag-line;fontStyle=1" parent="1" vertex="1">
          <mxGeometry x="-97.5" y="55" width="30" height="20" as="geometry" />
        </mxCell>
        <mxCell id="mOLojI1wZqAIwk1azhFG-14" value="A1" style="rounded=0;whiteSpace=wrap;html=1;fillColor=#fff2cc;strokeColor=#d6b656;fontStyle=1" parent="1" vertex="1">
          <mxGeometry x="-291.5" y="55" width="30" height="20" as="geometry" />
        </mxCell>
        <mxCell id="mOLojI1wZqAIwk1azhFG-15" value="&lt;font style=&quot;font-size: 15px;&quot;&gt;Concurrent&lt;br&gt;Section&lt;br&gt;&lt;/font&gt;" style="text;html=1;strokeColor=none;fillColor=none;align=center;verticalAlign=middle;whiteSpace=wrap;rounded=0;fontStyle=1" parent="1" vertex="1">
          <mxGeometry x="281.69" y="53" width="117.75" height="30" as="geometry" />
        </mxCell>
        <mxCell id="mOLojI1wZqAIwk1azhFG-16" value="&lt;font style=&quot;font-size: 15px;&quot;&gt;Operator&lt;/font&gt;" style="text;html=1;strokeColor=none;fillColor=none;align=center;verticalAlign=middle;whiteSpace=wrap;rounded=0;fontStyle=1" parent="1" vertex="1">
          <mxGeometry x="-261.5" y="50" width="100" height="30" as="geometry" />
        </mxCell>
        <mxCell id="mOLojI1wZqAIwk1azhFG-73" value="&lt;font style=&quot;font-size: 20px;&quot;&gt;（No SLA Violation）&lt;/font&gt;" style="text;html=1;strokeColor=none;fillColor=none;align=center;verticalAlign=middle;whiteSpace=wrap;rounded=0;rotation=0;fontStyle=1" parent="1" vertex="1">
          <mxGeometry x="-307.5" y="282" width="210" height="30" as="geometry" />
        </mxCell>
        <mxCell id="aFEut-Nw3Kqnz-RKJ25N-1" value="" style="rounded=0;whiteSpace=wrap;html=1;fontStyle=1" parent="1" vertex="1">
          <mxGeometry x="-80" y="425.81" width="770" height="260.19" as="geometry" />
        </mxCell>
        <mxCell id="aFEut-Nw3Kqnz-RKJ25N-3" value="&lt;font style=&quot;font-size: 15px;&quot;&gt;Model A&lt;/font&gt;" style="text;html=1;strokeColor=none;fillColor=none;align=center;verticalAlign=middle;whiteSpace=wrap;rounded=0;fontStyle=1" parent="1" vertex="1">
          <mxGeometry x="-80" y="441.05999999999995" width="100" height="30" as="geometry" />
        </mxCell>
        <mxCell id="aFEut-Nw3Kqnz-RKJ25N-4" value="&lt;font style=&quot;font-size: 15px;&quot;&gt;Model B&lt;/font&gt;" style="text;html=1;strokeColor=none;fillColor=none;align=center;verticalAlign=middle;whiteSpace=wrap;rounded=0;fontStyle=1" parent="1" vertex="1">
          <mxGeometry x="-80" y="500.80999999999995" width="100" height="30" as="geometry" />
        </mxCell>
        <mxCell id="aFEut-Nw3Kqnz-RKJ25N-5" value="" style="rounded=0;whiteSpace=wrap;html=1;dashed=1;fontStyle=1;strokeColor=default;strokeWidth=1;" parent="1" vertex="1">
          <mxGeometry x="30" y="498.80999999999995" width="650" height="34" as="geometry" />
        </mxCell>
        <mxCell id="aFEut-Nw3Kqnz-RKJ25N-6" value="" style="rounded=0;whiteSpace=wrap;html=1;dashed=1;fontStyle=1;strokeColor=default;strokeWidth=1;" parent="1" vertex="1">
          <mxGeometry x="30" y="438.81" width="650" height="34" as="geometry" />
        </mxCell>
        <mxCell id="aFEut-Nw3Kqnz-RKJ25N-7" value="&lt;font style=&quot;font-size: 15px;&quot;&gt;A1&lt;/font&gt;" style="rounded=0;whiteSpace=wrap;html=1;fillColor=#fff2cc;strokeColor=#d6b656;fontStyle=1" parent="1" vertex="1">
          <mxGeometry x="50" y="445.80999999999995" width="40" height="20" as="geometry" />
        </mxCell>
        <mxCell id="aFEut-Nw3Kqnz-RKJ25N-8" value="&lt;font style=&quot;font-size: 15px;&quot;&gt;A2&lt;/font&gt;" style="rounded=0;whiteSpace=wrap;html=1;fillColor=#fff2cc;strokeColor=#d6b656;fontStyle=1" parent="1" vertex="1">
          <mxGeometry x="120" y="445.80999999999995" width="40" height="20" as="geometry" />
        </mxCell>
        <mxCell id="aFEut-Nw3Kqnz-RKJ25N-9" value="&lt;font style=&quot;font-size: 15px;&quot;&gt;A3&lt;/font&gt;" style="rounded=0;whiteSpace=wrap;html=1;fillColor=#fff2cc;strokeColor=#d6b656;fontStyle=1" parent="1" vertex="1">
          <mxGeometry x="190" y="446.05999999999995" width="40" height="20" as="geometry" />
        </mxCell>
        <mxCell id="aFEut-Nw3Kqnz-RKJ25N-10" value="&lt;font style=&quot;font-size: 15px;&quot;&gt;A4&lt;/font&gt;" style="rounded=0;whiteSpace=wrap;html=1;fillColor=#fff2cc;strokeColor=#d6b656;fontStyle=1" parent="1" vertex="1">
          <mxGeometry x="300" y="446.05999999999995" width="60" height="20" as="geometry" />
        </mxCell>
        <mxCell id="aFEut-Nw3Kqnz-RKJ25N-17" value="" style="rounded=0;whiteSpace=wrap;html=1;fillColor=#fff2cc;strokeColor=#d6b656;shadow=0;glass=0;fillStyle=zigzag-line;fontStyle=1" parent="1" vertex="1">
          <mxGeometry x="90" y="446.05999999999995" width="30" height="20" as="geometry" />
        </mxCell>
        <mxCell id="aFEut-Nw3Kqnz-RKJ25N-18" value="" style="rounded=0;whiteSpace=wrap;html=1;fillColor=#fff2cc;strokeColor=#d6b656;fillStyle=zigzag-line;fontStyle=1" parent="1" vertex="1">
          <mxGeometry x="160" y="445.80999999999995" width="30" height="20" as="geometry" />
        </mxCell>
        <mxCell id="aFEut-Nw3Kqnz-RKJ25N-19" value="" style="rounded=0;whiteSpace=wrap;html=1;fillColor=#fff2cc;strokeColor=#d6b656;fillStyle=zigzag-line;fontStyle=1" parent="1" vertex="1">
          <mxGeometry x="230" y="446.05999999999995" width="70" height="20" as="geometry" />
        </mxCell>
        <mxCell id="aFEut-Nw3Kqnz-RKJ25N-20" value="" style="rounded=0;whiteSpace=wrap;html=1;fillColor=#fff2cc;strokeColor=#d6b656;fillStyle=zigzag-line;fontStyle=1" parent="1" vertex="1">
          <mxGeometry x="360" y="446.05999999999995" width="20" height="20" as="geometry" />
        </mxCell>
        <mxCell id="aFEut-Nw3Kqnz-RKJ25N-34" value="&lt;font style=&quot;font-size: 20px;&quot;&gt;Actural Scheduling Result&lt;/font&gt;" style="text;html=1;strokeColor=none;fillColor=none;align=center;verticalAlign=middle;whiteSpace=wrap;rounded=0;rotation=0;fontStyle=1" parent="1" vertex="1">
          <mxGeometry x="-293" y="530.81" width="200" height="30" as="geometry" />
        </mxCell>
        <mxCell id="aFEut-Nw3Kqnz-RKJ25N-46" value="&lt;font style=&quot;font-size: 15px;&quot;&gt;Model C&lt;br&gt;(Unseen)&lt;br&gt;&lt;/font&gt;" style="text;html=1;strokeColor=none;fillColor=none;align=center;verticalAlign=middle;whiteSpace=wrap;rounded=0;fontStyle=1" parent="1" vertex="1">
          <mxGeometry x="-80" y="565.81" width="100" height="30" as="geometry" />
        </mxCell>
        <mxCell id="aFEut-Nw3Kqnz-RKJ25N-47" value="" style="rounded=0;whiteSpace=wrap;html=1;dashed=1;fontStyle=1" parent="1" vertex="1">
          <mxGeometry x="30" y="563.81" width="650" height="34" as="geometry" />
        </mxCell>
        <mxCell id="aFEut-Nw3Kqnz-RKJ25N-48" value="&lt;font style=&quot;font-size: 15px;&quot;&gt;C1&lt;/font&gt;" style="rounded=0;whiteSpace=wrap;html=1;fillColor=#f8cecc;strokeColor=#b85450;fontStyle=1" parent="1" vertex="1">
          <mxGeometry x="50" y="571.94" width="30" height="20" as="geometry" />
        </mxCell>
        <mxCell id="aFEut-Nw3Kqnz-RKJ25N-49" value="&lt;font style=&quot;font-size: 15px;&quot;&gt;C2&lt;/font&gt;" style="rounded=0;whiteSpace=wrap;html=1;fillColor=#f8cecc;strokeColor=#b85450;fontStyle=1" parent="1" vertex="1">
          <mxGeometry x="100" y="571.94" width="30" height="20" as="geometry" />
        </mxCell>
        <mxCell id="aFEut-Nw3Kqnz-RKJ25N-50" value="&lt;font style=&quot;font-size: 15px;&quot;&gt;C3&lt;/font&gt;" style="rounded=0;whiteSpace=wrap;html=1;fillColor=#f8cecc;strokeColor=#b85450;fontStyle=1" parent="1" vertex="1">
          <mxGeometry x="201" y="571.94" width="60" height="20" as="geometry" />
        </mxCell>
        <mxCell id="aFEut-Nw3Kqnz-RKJ25N-52" value="" style="rounded=0;whiteSpace=wrap;html=1;fillColor=#f8cecc;strokeColor=#b85450;fillStyle=zigzag-line;fontStyle=1" parent="1" vertex="1">
          <mxGeometry x="80" y="571.94" width="20" height="20" as="geometry" />
        </mxCell>
        <mxCell id="aFEut-Nw3Kqnz-RKJ25N-53" value="" style="rounded=0;whiteSpace=wrap;html=1;fillColor=#f8cecc;strokeColor=#b85450;fillStyle=zigzag-line;fontStyle=1" parent="1" vertex="1">
          <mxGeometry x="130" y="571.94" width="70" height="20" as="geometry" />
        </mxCell>
        <mxCell id="aFEut-Nw3Kqnz-RKJ25N-55" value="" style="rounded=0;whiteSpace=wrap;html=1;fillColor=#f8cecc;strokeColor=#b85450;fillStyle=zigzag-line;fontStyle=1" parent="1" vertex="1">
          <mxGeometry x="261" y="571.94" width="70" height="20" as="geometry" />
        </mxCell>
        <mxCell id="aFEut-Nw3Kqnz-RKJ25N-64" value="" style="rounded=0;whiteSpace=wrap;html=1;dashed=1;fontStyle=1" parent="1" vertex="1">
          <mxGeometry x="30" y="260" width="560" height="34" as="geometry" />
        </mxCell>
        <mxCell id="aFEut-Nw3Kqnz-RKJ25N-63" value="&lt;font style=&quot;font-size: 15px;&quot;&gt;Model C&lt;br&gt;(Unseen)&lt;br&gt;&lt;/font&gt;" style="text;html=1;strokeColor=none;fillColor=none;align=center;verticalAlign=middle;whiteSpace=wrap;rounded=0;fontStyle=1" parent="1" vertex="1">
          <mxGeometry x="-80" y="262" width="100" height="30" as="geometry" />
        </mxCell>
        <mxCell id="aFEut-Nw3Kqnz-RKJ25N-65" value="&lt;font style=&quot;font-size: 15px;&quot;&gt;C1&lt;/font&gt;" style="rounded=0;whiteSpace=wrap;html=1;fillColor=#f8cecc;strokeColor=#b85450;fontStyle=1" parent="1" vertex="1">
          <mxGeometry x="50" y="268.13" width="50" height="20" as="geometry" />
        </mxCell>
        <mxCell id="aFEut-Nw3Kqnz-RKJ25N-66" value="&lt;font style=&quot;font-size: 15px;&quot;&gt;C2&lt;/font&gt;" style="rounded=0;whiteSpace=wrap;html=1;fillColor=#f8cecc;strokeColor=#b85450;fontStyle=1" parent="1" vertex="1">
          <mxGeometry x="131" y="268.13" width="40" height="20" as="geometry" />
        </mxCell>
        <mxCell id="aFEut-Nw3Kqnz-RKJ25N-67" value="&lt;font style=&quot;font-size: 15px;&quot;&gt;C3&lt;/font&gt;" style="rounded=0;whiteSpace=wrap;html=1;fillColor=#f8cecc;strokeColor=#b85450;fontStyle=1" parent="1" vertex="1">
          <mxGeometry x="202" y="268.13" width="60" height="20" as="geometry" />
        </mxCell>
        <mxCell id="aFEut-Nw3Kqnz-RKJ25N-68" value="" style="rounded=0;whiteSpace=wrap;html=1;fillColor=#f8cecc;strokeColor=#b85450;fillStyle=zigzag-line;fontStyle=1" parent="1" vertex="1">
          <mxGeometry x="100" y="268.13" width="30" height="20" as="geometry" />
        </mxCell>
        <mxCell id="aFEut-Nw3Kqnz-RKJ25N-69" value="" style="rounded=0;whiteSpace=wrap;html=1;fillColor=#f8cecc;strokeColor=#b85450;fillStyle=zigzag-line;fontStyle=1" parent="1" vertex="1">
          <mxGeometry x="171" y="268.13" width="30" height="20" as="geometry" />
        </mxCell>
        <mxCell id="aFEut-Nw3Kqnz-RKJ25N-70" value="" style="rounded=0;whiteSpace=wrap;html=1;fillColor=#f8cecc;strokeColor=#b85450;fillStyle=zigzag-line;fontStyle=1" parent="1" vertex="1">
          <mxGeometry x="262" y="268.13" width="28" height="20" as="geometry" />
        </mxCell>
        <mxCell id="aFEut-Nw3Kqnz-RKJ25N-79" value="" style="rounded=0;whiteSpace=wrap;html=1;fontStyle=1" parent="1" vertex="1">
          <mxGeometry x="-80" y="739.94" width="670" height="252.06" as="geometry" />
        </mxCell>
        <mxCell id="aFEut-Nw3Kqnz-RKJ25N-81" value="&lt;font style=&quot;font-size: 15px;&quot;&gt;Model A&lt;/font&gt;" style="text;html=1;strokeColor=none;fillColor=none;align=center;verticalAlign=middle;whiteSpace=wrap;rounded=0;fontStyle=1" parent="1" vertex="1">
          <mxGeometry x="-80" y="755.1899999999999" width="100" height="30" as="geometry" />
        </mxCell>
        <mxCell id="aFEut-Nw3Kqnz-RKJ25N-82" value="&lt;font style=&quot;font-size: 15px;&quot;&gt;Model B&lt;/font&gt;" style="text;html=1;strokeColor=none;fillColor=none;align=center;verticalAlign=middle;whiteSpace=wrap;rounded=0;fontStyle=1" parent="1" vertex="1">
          <mxGeometry x="-80" y="814.94" width="100" height="30" as="geometry" />
        </mxCell>
        <mxCell id="aFEut-Nw3Kqnz-RKJ25N-83" value="" style="rounded=0;whiteSpace=wrap;html=1;dashed=1;fontStyle=1" parent="1" vertex="1">
          <mxGeometry x="30" y="812.94" width="450" height="34" as="geometry" />
        </mxCell>
        <mxCell id="aFEut-Nw3Kqnz-RKJ25N-84" value="" style="rounded=0;whiteSpace=wrap;html=1;dashed=1;fontStyle=1" parent="1" vertex="1">
          <mxGeometry x="35" y="753.1899999999999" width="445" height="34" as="geometry" />
        </mxCell>
        <mxCell id="aFEut-Nw3Kqnz-RKJ25N-85" value="&lt;font style=&quot;font-size: 15px;&quot;&gt;A1&lt;/font&gt;" style="rounded=0;whiteSpace=wrap;html=1;fillColor=#fff2cc;strokeColor=#d6b656;fontStyle=1" parent="1" vertex="1">
          <mxGeometry x="50" y="759.9399999999999" width="40" height="20" as="geometry" />
        </mxCell>
        <mxCell id="aFEut-Nw3Kqnz-RKJ25N-86" value="&lt;font style=&quot;font-size: 15px;&quot;&gt;A2&lt;/font&gt;" style="rounded=0;whiteSpace=wrap;html=1;fillColor=#fff2cc;strokeColor=#d6b656;fontStyle=1" parent="1" vertex="1">
          <mxGeometry x="101" y="759.9399999999999" width="40" height="20" as="geometry" />
        </mxCell>
        <mxCell id="aFEut-Nw3Kqnz-RKJ25N-87" value="&lt;font style=&quot;font-size: 15px;&quot;&gt;A3&lt;/font&gt;" style="rounded=0;whiteSpace=wrap;html=1;fillColor=#fff2cc;strokeColor=#d6b656;fontStyle=1" parent="1" vertex="1">
          <mxGeometry x="160" y="759.9399999999999" width="40" height="20" as="geometry" />
        </mxCell>
        <mxCell id="aFEut-Nw3Kqnz-RKJ25N-88" value="&lt;font style=&quot;font-size: 15px;&quot;&gt;A4&lt;/font&gt;" style="rounded=0;whiteSpace=wrap;html=1;fillColor=#fff2cc;strokeColor=#d6b656;fontStyle=1" parent="1" vertex="1">
          <mxGeometry x="210" y="760.4399999999999" width="60" height="20" as="geometry" />
        </mxCell>
        <mxCell id="aFEut-Nw3Kqnz-RKJ25N-89" value="&lt;font style=&quot;font-size: 15px;&quot;&gt;B1&lt;/font&gt;" style="rounded=0;whiteSpace=wrap;html=1;fillColor=#dae8fc;strokeColor=#6c8ebf;fontStyle=1" parent="1" vertex="1">
          <mxGeometry x="50" y="819.94" width="30" height="20" as="geometry" />
        </mxCell>
        <mxCell id="aFEut-Nw3Kqnz-RKJ25N-90" value="&lt;font style=&quot;font-size: 15px;&quot;&gt;B2&lt;/font&gt;" style="rounded=0;whiteSpace=wrap;html=1;fillColor=#dae8fc;strokeColor=#6c8ebf;fontStyle=1" parent="1" vertex="1">
          <mxGeometry x="121" y="819.94" width="30" height="20" as="geometry" />
        </mxCell>
        <mxCell id="aFEut-Nw3Kqnz-RKJ25N-91" value="&lt;font style=&quot;font-size: 15px;&quot;&gt;B3&lt;/font&gt;" style="rounded=0;whiteSpace=wrap;html=1;fillColor=#dae8fc;strokeColor=#6c8ebf;fontStyle=1" parent="1" vertex="1">
          <mxGeometry x="180" y="819.94" width="60" height="20" as="geometry" />
        </mxCell>
        <mxCell id="aFEut-Nw3Kqnz-RKJ25N-95" value="" style="rounded=0;whiteSpace=wrap;html=1;fillColor=#fff2cc;strokeColor=#d6b656;shadow=0;glass=0;fillStyle=zigzag-line;fontStyle=1" parent="1" vertex="1">
          <mxGeometry x="90" y="760.19" width="10" height="20" as="geometry" />
        </mxCell>
        <mxCell id="aFEut-Nw3Kqnz-RKJ25N-96" value="" style="rounded=0;whiteSpace=wrap;html=1;fillColor=#fff2cc;strokeColor=#d6b656;fillStyle=zigzag-line;fontStyle=1" parent="1" vertex="1">
          <mxGeometry x="141" y="759.9399999999999" width="20" height="20" as="geometry" />
        </mxCell>
        <mxCell id="aFEut-Nw3Kqnz-RKJ25N-97" value="" style="rounded=0;whiteSpace=wrap;html=1;fillColor=#fff2cc;strokeColor=#d6b656;fillStyle=zigzag-line;fontStyle=1" parent="1" vertex="1">
          <mxGeometry x="199.91" y="760.44" width="10.09" height="20" as="geometry" />
        </mxCell>
        <mxCell id="aFEut-Nw3Kqnz-RKJ25N-99" value="" style="rounded=0;whiteSpace=wrap;html=1;fillColor=#dae8fc;strokeColor=#6c8ebf;fillStyle=zigzag-line;fontStyle=1" parent="1" vertex="1">
          <mxGeometry x="80" y="819.94" width="40" height="20" as="geometry" />
        </mxCell>
        <mxCell id="aFEut-Nw3Kqnz-RKJ25N-100" value="" style="rounded=0;whiteSpace=wrap;html=1;fillColor=#dae8fc;strokeColor=#6c8ebf;fillStyle=zigzag-line;fontStyle=1" parent="1" vertex="1">
          <mxGeometry x="150.82" y="819.94" width="29.18" height="20" as="geometry" />
        </mxCell>
        <mxCell id="aFEut-Nw3Kqnz-RKJ25N-102" value="" style="rounded=0;whiteSpace=wrap;html=1;fillColor=#dae8fc;strokeColor=#6c8ebf;fillStyle=zigzag-line;fontStyle=1" parent="1" vertex="1">
          <mxGeometry x="241" y="819.94" width="30" height="20" as="geometry" />
        </mxCell>
        <mxCell id="aFEut-Nw3Kqnz-RKJ25N-110" value="&lt;font style=&quot;font-size: 20px;&quot;&gt;Actual Optimal Scheduling&lt;/font&gt;" style="text;html=1;strokeColor=none;fillColor=none;align=center;verticalAlign=middle;whiteSpace=wrap;rounded=0;rotation=0;fontStyle=1" parent="1" vertex="1">
          <mxGeometry x="-292.5" y="844.94" width="195" height="30" as="geometry" />
        </mxCell>
        <mxCell id="aFEut-Nw3Kqnz-RKJ25N-111" value="&lt;font style=&quot;font-size: 15px;&quot;&gt;Model C&lt;br&gt;(Unseen)&lt;br&gt;&lt;/font&gt;" style="text;html=1;strokeColor=none;fillColor=none;align=center;verticalAlign=middle;whiteSpace=wrap;rounded=0;fontStyle=1" parent="1" vertex="1">
          <mxGeometry x="-78" y="880.94" width="100" height="30" as="geometry" />
        </mxCell>
        <mxCell id="aFEut-Nw3Kqnz-RKJ25N-112" value="" style="rounded=0;whiteSpace=wrap;html=1;dashed=1;fontStyle=1" parent="1" vertex="1">
          <mxGeometry x="30" y="877.94" width="450" height="34" as="geometry" />
        </mxCell>
        <mxCell id="aFEut-Nw3Kqnz-RKJ25N-113" value="&lt;font style=&quot;font-size: 15px;&quot;&gt;C1&lt;/font&gt;" style="rounded=0;whiteSpace=wrap;html=1;fillColor=#f8cecc;strokeColor=#b85450;fontStyle=1" parent="1" vertex="1">
          <mxGeometry x="281.75" y="884.94" width="30" height="20" as="geometry" />
        </mxCell>
        <mxCell id="aFEut-Nw3Kqnz-RKJ25N-114" value="&lt;font style=&quot;font-size: 15px;&quot;&gt;C2&lt;/font&gt;" style="rounded=0;whiteSpace=wrap;html=1;fillColor=#f8cecc;strokeColor=#b85450;fontStyle=1" parent="1" vertex="1">
          <mxGeometry x="330.75" y="884.94" width="30" height="20" as="geometry" />
        </mxCell>
        <mxCell id="aFEut-Nw3Kqnz-RKJ25N-115" value="&lt;font style=&quot;font-size: 15px;&quot;&gt;C3&lt;/font&gt;" style="rounded=0;whiteSpace=wrap;html=1;fillColor=#f8cecc;strokeColor=#b85450;fontStyle=1" parent="1" vertex="1">
          <mxGeometry x="392.75" y="884.94" width="60" height="20" as="geometry" />
        </mxCell>
        <mxCell id="aFEut-Nw3Kqnz-RKJ25N-116" value="" style="rounded=0;whiteSpace=wrap;html=1;fillColor=#f8cecc;strokeColor=#b85450;fillStyle=zigzag-line;fontStyle=1" parent="1" vertex="1">
          <mxGeometry x="311.75" y="884.94" width="18.25" height="20" as="geometry" />
        </mxCell>
        <mxCell id="aFEut-Nw3Kqnz-RKJ25N-117" value="" style="rounded=0;whiteSpace=wrap;html=1;fillColor=#f8cecc;strokeColor=#b85450;fillStyle=zigzag-line;fontStyle=1" parent="1" vertex="1">
          <mxGeometry x="360.75" y="884.94" width="32.25" height="20" as="geometry" />
        </mxCell>
        <mxCell id="aFEut-Nw3Kqnz-RKJ25N-118" value="" style="rounded=0;whiteSpace=wrap;html=1;fillColor=#f8cecc;strokeColor=#b85450;fillStyle=zigzag-line;fontStyle=1" parent="1" vertex="1">
          <mxGeometry x="452.82" y="884.94" width="21.18" height="20" as="geometry" />
        </mxCell>
        <mxCell id="1enAks9yBNtXk0IQrdcj-2" value="A1" style="rounded=0;whiteSpace=wrap;html=1;fillColor=#fff2cc;strokeColor=#d6b656;fontStyle=1" parent="1" vertex="1">
          <mxGeometry x="217.12" y="42" width="30" height="20" as="geometry" />
        </mxCell>
        <mxCell id="1enAks9yBNtXk0IQrdcj-4" value="B1" style="rounded=0;whiteSpace=wrap;html=1;fillColor=#dae8fc;strokeColor=#6c8ebf;fontStyle=1" parent="1" vertex="1">
          <mxGeometry x="217.12" y="67.99999999999994" width="30" height="20" as="geometry" />
        </mxCell>
        <mxCell id="1enAks9yBNtXk0IQrdcj-5" value="" style="rounded=0;whiteSpace=wrap;html=1;fillColor=#fff2cc;strokeColor=#d6b656;shadow=0;glass=0;fillStyle=zigzag-line;fontStyle=1" parent="1" vertex="1">
          <mxGeometry x="247.37" y="42" width="30" height="20" as="geometry" />
        </mxCell>
        <mxCell id="1enAks9yBNtXk0IQrdcj-7" value="" style="rounded=0;whiteSpace=wrap;html=1;fillColor=#dae8fc;strokeColor=#6c8ebf;fillStyle=zigzag-line;fontStyle=1" parent="1" vertex="1">
          <mxGeometry x="247.37" y="68" width="30" height="20" as="geometry" />
        </mxCell>
        <mxCell id="1enAks9yBNtXk0IQrdcj-8" value="&lt;font style=&quot;font-size: 15px;&quot;&gt;Resource Contention Overhead&lt;/font&gt;" style="text;html=1;strokeColor=none;fillColor=none;align=center;verticalAlign=middle;whiteSpace=wrap;rounded=0;fontStyle=1" parent="1" vertex="1">
          <mxGeometry x="-57.50000000000001" y="51" width="167.5" height="30" as="geometry" />
        </mxCell>
        <mxCell id="URHiBeIzrlBPaXmU1U8u-2" value="&lt;font style=&quot;font-size: 15px;&quot;&gt;Deadline A: 3&lt;br&gt;&lt;/font&gt;" style="text;html=1;strokeColor=none;fillColor=none;align=center;verticalAlign=middle;whiteSpace=wrap;rounded=0;fontStyle=1" parent="1" vertex="1">
          <mxGeometry x="230" y="1012" width="117.75" height="30" as="geometry" />
        </mxCell>
        <mxCell id="9vteJf4cT2fO9NjOlLXd-10" value="&lt;font style=&quot;font-size: 15px;&quot;&gt;Model D&lt;/font&gt;" style="text;html=1;strokeColor=none;fillColor=none;align=center;verticalAlign=middle;whiteSpace=wrap;rounded=0;fontStyle=1" parent="1" vertex="1">
          <mxGeometry x="-80" y="322" width="100" height="30" as="geometry" />
        </mxCell>
        <mxCell id="9vteJf4cT2fO9NjOlLXd-11" value="" style="rounded=0;whiteSpace=wrap;html=1;dashed=1;fontStyle=1" parent="1" vertex="1">
          <mxGeometry x="30" y="320" width="560" height="34" as="geometry" />
        </mxCell>
        <mxCell id="9vteJf4cT2fO9NjOlLXd-12" value="&lt;font style=&quot;font-size: 15px;&quot;&gt;D1&lt;/font&gt;" style="rounded=0;whiteSpace=wrap;html=1;fillColor=#d5e8d4;strokeColor=#82b366;fontStyle=1" parent="1" vertex="1">
          <mxGeometry x="291" y="328.13" width="30" height="20" as="geometry" />
        </mxCell>
        <mxCell id="9vteJf4cT2fO9NjOlLXd-13" value="&lt;font style=&quot;font-size: 15px;&quot;&gt;D2&lt;/font&gt;" style="rounded=0;whiteSpace=wrap;html=1;fillColor=#d5e8d4;strokeColor=#82b366;fontStyle=1" parent="1" vertex="1">
          <mxGeometry x="340" y="328.13" width="30" height="20" as="geometry" />
        </mxCell>
        <mxCell id="9vteJf4cT2fO9NjOlLXd-14" value="&lt;font style=&quot;font-size: 15px;&quot;&gt;D3&lt;/font&gt;" style="rounded=0;whiteSpace=wrap;html=1;fillColor=#d5e8d4;strokeColor=#82b366;fontStyle=1" parent="1" vertex="1">
          <mxGeometry x="420" y="328.13" width="60" height="20" as="geometry" />
        </mxCell>
        <mxCell id="9vteJf4cT2fO9NjOlLXd-15" value="&lt;font style=&quot;font-size: 15px;&quot;&gt;D4&lt;/font&gt;" style="rounded=0;whiteSpace=wrap;html=1;fillColor=#d5e8d4;strokeColor=#82b366;fontStyle=1" parent="1" vertex="1">
          <mxGeometry x="530" y="328.13" width="50" height="20" as="geometry" />
        </mxCell>
        <mxCell id="9vteJf4cT2fO9NjOlLXd-16" value="" style="rounded=0;whiteSpace=wrap;html=1;fillColor=#d5e8d4;strokeColor=#82b366;fillStyle=zigzag-line;fontStyle=1" parent="1" vertex="1">
          <mxGeometry x="321" y="328.13" width="19" height="20" as="geometry" />
        </mxCell>
        <mxCell id="9vteJf4cT2fO9NjOlLXd-17" value="" style="rounded=0;whiteSpace=wrap;html=1;fillColor=#d5e8d4;strokeColor=#82b366;fillStyle=zigzag-line;fontStyle=1" parent="1" vertex="1">
          <mxGeometry x="370" y="328.13" width="50" height="20" as="geometry" />
        </mxCell>
        <mxCell id="9vteJf4cT2fO9NjOlLXd-19" value="" style="rounded=0;whiteSpace=wrap;html=1;fillColor=#d5e8d4;strokeColor=#82b366;fillStyle=zigzag-line;fontStyle=1" parent="1" vertex="1">
          <mxGeometry x="480" y="328.13" width="50" height="20" as="geometry" />
        </mxCell>
        <mxCell id="9vteJf4cT2fO9NjOlLXd-23" value="&lt;font style=&quot;font-size: 15px;&quot;&gt;Model D&lt;/font&gt;" style="text;html=1;strokeColor=none;fillColor=none;align=center;verticalAlign=middle;whiteSpace=wrap;rounded=0;fontStyle=1" parent="1" vertex="1">
          <mxGeometry x="-80" y="628" width="100" height="30" as="geometry" />
        </mxCell>
        <mxCell id="9vteJf4cT2fO9NjOlLXd-24" value="" style="rounded=0;whiteSpace=wrap;html=1;dashed=1;fontStyle=1;strokeColor=default;strokeWidth=1;" parent="1" vertex="1">
          <mxGeometry x="30" y="626" width="650" height="34" as="geometry" />
        </mxCell>
        <mxCell id="9vteJf4cT2fO9NjOlLXd-32" value="&lt;font style=&quot;font-size: 15px;&quot;&gt;D1&lt;/font&gt;" style="rounded=0;whiteSpace=wrap;html=1;fillColor=#d5e8d4;strokeColor=#82b366;fontStyle=1" parent="1" vertex="1">
          <mxGeometry x="380" y="634" width="30" height="20" as="geometry" />
        </mxCell>
        <mxCell id="9vteJf4cT2fO9NjOlLXd-33" value="&lt;font style=&quot;font-size: 15px;&quot;&gt;D2&lt;/font&gt;" style="rounded=0;whiteSpace=wrap;html=1;fillColor=#d5e8d4;strokeColor=#82b366;fontStyle=1" parent="1" vertex="1">
          <mxGeometry x="429" y="634" width="30" height="20" as="geometry" />
        </mxCell>
        <mxCell id="9vteJf4cT2fO9NjOlLXd-34" value="&lt;font style=&quot;font-size: 15px;&quot;&gt;D3&lt;/font&gt;" style="rounded=0;whiteSpace=wrap;html=1;fillColor=#d5e8d4;strokeColor=#82b366;fontStyle=1" parent="1" vertex="1">
          <mxGeometry x="509" y="634" width="60" height="20" as="geometry" />
        </mxCell>
        <mxCell id="9vteJf4cT2fO9NjOlLXd-35" value="&lt;font style=&quot;font-size: 15px;&quot;&gt;D4&lt;/font&gt;" style="rounded=0;whiteSpace=wrap;html=1;fillColor=#d5e8d4;strokeColor=#82b366;fontStyle=1" parent="1" vertex="1">
          <mxGeometry x="619" y="634" width="50" height="20" as="geometry" />
        </mxCell>
        <mxCell id="9vteJf4cT2fO9NjOlLXd-36" value="" style="rounded=0;whiteSpace=wrap;html=1;fillColor=#d5e8d4;strokeColor=#82b366;fillStyle=zigzag-line;fontStyle=1" parent="1" vertex="1">
          <mxGeometry x="410" y="634" width="19" height="20" as="geometry" />
        </mxCell>
        <mxCell id="9vteJf4cT2fO9NjOlLXd-37" value="" style="rounded=0;whiteSpace=wrap;html=1;fillColor=#d5e8d4;strokeColor=#82b366;fillStyle=zigzag-line;fontStyle=1" parent="1" vertex="1">
          <mxGeometry x="459" y="634" width="50" height="20" as="geometry" />
        </mxCell>
        <mxCell id="9vteJf4cT2fO9NjOlLXd-38" value="" style="rounded=0;whiteSpace=wrap;html=1;fillColor=#d5e8d4;strokeColor=#82b366;fillStyle=zigzag-line;fontStyle=1" parent="1" vertex="1">
          <mxGeometry x="569" y="634" width="50" height="20" as="geometry" />
        </mxCell>
        <mxCell id="9vteJf4cT2fO9NjOlLXd-39" value="&lt;font style=&quot;font-size: 15px;&quot;&gt;B1&lt;/font&gt;" style="rounded=0;whiteSpace=wrap;html=1;fillColor=#dae8fc;strokeColor=#6c8ebf;fontStyle=1" parent="1" vertex="1">
          <mxGeometry x="380" y="505.80999999999995" width="30" height="20" as="geometry" />
        </mxCell>
        <mxCell id="9vteJf4cT2fO9NjOlLXd-40" value="&lt;font style=&quot;font-size: 15px;&quot;&gt;B2&lt;/font&gt;" style="rounded=0;whiteSpace=wrap;html=1;fillColor=#dae8fc;strokeColor=#6c8ebf;fontStyle=1" parent="1" vertex="1">
          <mxGeometry x="428" y="505.80999999999995" width="30" height="20" as="geometry" />
        </mxCell>
        <mxCell id="9vteJf4cT2fO9NjOlLXd-41" value="&lt;font style=&quot;font-size: 15px;&quot;&gt;B3&lt;/font&gt;" style="rounded=0;whiteSpace=wrap;html=1;fillColor=#dae8fc;strokeColor=#6c8ebf;fontStyle=1" parent="1" vertex="1">
          <mxGeometry x="508" y="505.80999999999995" width="60" height="20" as="geometry" />
        </mxCell>
        <mxCell id="9vteJf4cT2fO9NjOlLXd-42" value="" style="rounded=0;whiteSpace=wrap;html=1;fillColor=#dae8fc;strokeColor=#6c8ebf;fillStyle=zigzag-line;fontStyle=1" parent="1" vertex="1">
          <mxGeometry x="410" y="505.80999999999995" width="17" height="20" as="geometry" />
        </mxCell>
        <mxCell id="9vteJf4cT2fO9NjOlLXd-43" value="" style="rounded=0;whiteSpace=wrap;html=1;fillColor=#dae8fc;strokeColor=#6c8ebf;fillStyle=zigzag-line;fontStyle=1" parent="1" vertex="1">
          <mxGeometry x="458" y="505.80999999999995" width="50" height="20" as="geometry" />
        </mxCell>
        <mxCell id="9vteJf4cT2fO9NjOlLXd-44" value="" style="rounded=0;whiteSpace=wrap;html=1;fillColor=#dae8fc;strokeColor=#6c8ebf;fillStyle=zigzag-line;fontStyle=1" parent="1" vertex="1">
          <mxGeometry x="568" y="505.80999999999995" width="50" height="20" as="geometry" />
        </mxCell>
        <mxCell id="9vteJf4cT2fO9NjOlLXd-45" value="&lt;font style=&quot;font-size: 15px;&quot;&gt;Model D&lt;/font&gt;" style="text;html=1;strokeColor=none;fillColor=none;align=center;verticalAlign=middle;whiteSpace=wrap;rounded=0;fontStyle=1" parent="1" vertex="1">
          <mxGeometry x="-80" y="942" width="100" height="30" as="geometry" />
        </mxCell>
        <mxCell id="9vteJf4cT2fO9NjOlLXd-46" value="" style="rounded=0;whiteSpace=wrap;html=1;dashed=1;fontStyle=1" parent="1" vertex="1">
          <mxGeometry x="30" y="940" width="550" height="34" as="geometry" />
        </mxCell>
        <mxCell id="9vteJf4cT2fO9NjOlLXd-47" value="&lt;font style=&quot;font-size: 15px;&quot;&gt;D1&lt;/font&gt;" style="rounded=0;whiteSpace=wrap;html=1;fillColor=#d5e8d4;strokeColor=#82b366;fontStyle=1" parent="1" vertex="1">
          <mxGeometry x="282" y="948" width="30" height="20" as="geometry" />
        </mxCell>
        <mxCell id="9vteJf4cT2fO9NjOlLXd-48" value="&lt;font style=&quot;font-size: 15px;&quot;&gt;D2&lt;/font&gt;" style="rounded=0;whiteSpace=wrap;html=1;fillColor=#d5e8d4;strokeColor=#82b366;fontStyle=1" parent="1" vertex="1">
          <mxGeometry x="360" y="948" width="30" height="20" as="geometry" />
        </mxCell>
        <mxCell id="9vteJf4cT2fO9NjOlLXd-49" value="&lt;font style=&quot;font-size: 15px;&quot;&gt;D3&lt;/font&gt;" style="rounded=0;whiteSpace=wrap;html=1;fillColor=#d5e8d4;strokeColor=#82b366;fontStyle=1" parent="1" vertex="1">
          <mxGeometry x="410" y="948" width="60" height="20" as="geometry" />
        </mxCell>
        <mxCell id="9vteJf4cT2fO9NjOlLXd-50" value="&lt;font style=&quot;font-size: 15px;&quot;&gt;D4&lt;/font&gt;" style="rounded=0;whiteSpace=wrap;html=1;fillColor=#d5e8d4;strokeColor=#82b366;fontStyle=1" parent="1" vertex="1">
          <mxGeometry x="490" y="948" width="50" height="20" as="geometry" />
        </mxCell>
        <mxCell id="9vteJf4cT2fO9NjOlLXd-51" value="" style="rounded=0;whiteSpace=wrap;html=1;fillColor=#d5e8d4;strokeColor=#82b366;fillStyle=zigzag-line;fontStyle=1" parent="1" vertex="1">
          <mxGeometry x="312" y="948" width="48" height="20" as="geometry" />
        </mxCell>
        <mxCell id="9vteJf4cT2fO9NjOlLXd-52" value="" style="rounded=0;whiteSpace=wrap;html=1;fillColor=#d5e8d4;strokeColor=#82b366;fillStyle=zigzag-line;fontStyle=1" parent="1" vertex="1">
          <mxGeometry x="390" y="948" width="20" height="20" as="geometry" />
        </mxCell>
        <mxCell id="9vteJf4cT2fO9NjOlLXd-53" value="" style="rounded=0;whiteSpace=wrap;html=1;fillColor=#d5e8d4;strokeColor=#82b366;fillStyle=zigzag-line;fontStyle=1" parent="1" vertex="1">
          <mxGeometry x="470" y="948" width="20" height="20" as="geometry" />
        </mxCell>
        <mxCell id="9vteJf4cT2fO9NjOlLXd-55" value="" style="rounded=0;whiteSpace=wrap;html=1;fillColor=#fff2cc;strokeColor=#d6b656;fillStyle=zigzag-line;fontStyle=1" parent="1" vertex="1">
          <mxGeometry x="271" y="760.44" width="10.09" height="20" as="geometry" />
        </mxCell>
        <mxCell id="9vteJf4cT2fO9NjOlLXd-57" value="" style="endArrow=none;dashed=1;html=1;dashPattern=1 3;strokeWidth=2;rounded=0;" parent="1" edge="1">
          <mxGeometry width="50" height="50" relative="1" as="geometry">
            <mxPoint x="50" y="862" as="sourcePoint" />
            <mxPoint x="50" y="722.25" as="targetPoint" />
          </mxGeometry>
        </mxCell>
        <mxCell id="9vteJf4cT2fO9NjOlLXd-58" value="" style="endArrow=none;dashed=1;html=1;dashPattern=1 3;strokeWidth=2;rounded=0;entryX=0.546;entryY=1.167;entryDx=0;entryDy=0;entryPerimeter=0;" parent="1" edge="1">
          <mxGeometry width="50" height="50" relative="1" as="geometry">
            <mxPoint x="281" y="984.69" as="sourcePoint" />
            <mxPoint x="281.15999999999985" y="727.2" as="targetPoint" />
          </mxGeometry>
        </mxCell>
        <mxCell id="9vteJf4cT2fO9NjOlLXd-59" value="" style="endArrow=none;dashed=1;html=1;dashPattern=1 3;strokeWidth=2;rounded=0;" parent="1" edge="1">
          <mxGeometry width="50" height="50" relative="1" as="geometry">
            <mxPoint x="50" y="616" as="sourcePoint" />
            <mxPoint x="50" y="426" as="targetPoint" />
          </mxGeometry>
        </mxCell>
        <mxCell id="9vteJf4cT2fO9NjOlLXd-61" value="" style="endArrow=none;dashed=1;html=1;dashPattern=1 3;strokeWidth=2;rounded=0;entryX=0.546;entryY=1.167;entryDx=0;entryDy=0;entryPerimeter=0;" parent="1" edge="1">
          <mxGeometry width="50" height="50" relative="1" as="geometry">
            <mxPoint x="380" y="686" as="sourcePoint" />
            <mxPoint x="380" y="428.31" as="targetPoint" />
          </mxGeometry>
        </mxCell>
        <mxCell id="9vteJf4cT2fO9NjOlLXd-62" value="" style="endArrow=none;dashed=1;html=1;dashPattern=1 3;strokeWidth=2;rounded=0;entryX=0.546;entryY=1.167;entryDx=0;entryDy=0;entryPerimeter=0;" parent="1" edge="1">
          <mxGeometry width="50" height="50" relative="1" as="geometry">
            <mxPoint x="291" y="370.0000000000001" as="sourcePoint" />
            <mxPoint x="291" y="112.31000000000003" as="targetPoint" />
          </mxGeometry>
        </mxCell>
        <mxCell id="URHiBeIzrlBPaXmU1U8u-1" value="" style="endArrow=none;html=1;rounded=0;strokeWidth=3;strokeColor=#FF3333;" parent="1" edge="1">
          <mxGeometry width="50" height="50" relative="1" as="geometry">
            <mxPoint x="562" y="1050" as="sourcePoint" />
            <mxPoint x="562" y="100" as="targetPoint" />
          </mxGeometry>
        </mxCell>
        <mxCell id="9vteJf4cT2fO9NjOlLXd-21" value="" style="endArrow=none;html=1;rounded=0;strokeWidth=3;strokeColor=#6c8ebf;fillColor=#dae8fc;" parent="1" edge="1">
          <mxGeometry width="50" height="50" relative="1" as="geometry">
            <mxPoint x="540" y="1011" as="sourcePoint" />
            <mxPoint x="540" y="100" as="targetPoint" />
          </mxGeometry>
        </mxCell>
        <mxCell id="9vteJf4cT2fO9NjOlLXd-22" value="" style="endArrow=none;html=1;rounded=0;strokeWidth=3;strokeColor=#82b366;fillColor=#d5e8d4;" parent="1" edge="1">
          <mxGeometry width="50" height="50" relative="1" as="geometry">
            <mxPoint x="600" y="1011" as="sourcePoint" />
            <mxPoint x="600" y="100" as="targetPoint" />
          </mxGeometry>
        </mxCell>
        <mxCell id="9vteJf4cT2fO9NjOlLXd-63" value="&lt;font style=&quot;font-size: 15px;&quot;&gt;Deadline C: 6.5&lt;br&gt;&lt;/font&gt;" style="text;html=1;strokeColor=none;fillColor=none;align=center;verticalAlign=middle;whiteSpace=wrap;rounded=0;fontStyle=1" parent="1" vertex="1">
          <mxGeometry x="501.25" y="1042" width="117.75" height="30" as="geometry" />
        </mxCell>
        <mxCell id="9vteJf4cT2fO9NjOlLXd-64" value="&lt;font style=&quot;font-size: 15px;&quot;&gt;Deadline D: 9&lt;br&gt;&lt;/font&gt;" style="text;html=1;strokeColor=none;fillColor=none;align=center;verticalAlign=middle;whiteSpace=wrap;rounded=0;fontStyle=1" parent="1" vertex="1">
          <mxGeometry x="559" y="1012" width="117.75" height="30" as="geometry" />
        </mxCell>
        <mxCell id="9vteJf4cT2fO9NjOlLXd-65" value="&lt;font style=&quot;font-size: 15px;&quot;&gt;Deadline B: 6&lt;br&gt;&lt;/font&gt;" style="text;html=1;strokeColor=none;fillColor=none;align=center;verticalAlign=middle;whiteSpace=wrap;rounded=0;fontStyle=1" parent="1" vertex="1">
          <mxGeometry x="445.25" y="1012" width="117.75" height="30" as="geometry" />
        </mxCell>
        <mxCell id="9vteJf4cT2fO9NjOlLXd-76" value="" style="endArrow=none;html=1;rounded=0;dashed=1;strokeWidth=2;" parent="1" edge="1">
          <mxGeometry width="50" height="50" relative="1" as="geometry">
            <mxPoint x="-280" y="400" as="sourcePoint" />
            <mxPoint x="700" y="400" as="targetPoint" />
          </mxGeometry>
        </mxCell>
        <mxCell id="9vteJf4cT2fO9NjOlLXd-77" value="" style="endArrow=none;html=1;rounded=0;dashed=1;strokeWidth=2;" parent="1" edge="1">
          <mxGeometry width="50" height="50" relative="1" as="geometry">
            <mxPoint x="-280" y="710" as="sourcePoint" />
            <mxPoint x="700" y="710" as="targetPoint" />
          </mxGeometry>
        </mxCell>
        <mxCell id="9vteJf4cT2fO9NjOlLXd-78" value="" style="rounded=1;whiteSpace=wrap;html=1;fillColor=none;strokeColor=#FF2A00;strokeWidth=3;points=[];" parent="1" vertex="1">
          <mxGeometry x="280" y="426.06" width="110" height="60" as="geometry" />
        </mxCell>
        <mxCell id="9vteJf4cT2fO9NjOlLXd-20" value="" style="endArrow=none;html=1;strokeWidth=3;strokeColor=#d6b656;fillColor=#fff2cc;jumpStyle=none;rounded=0;" parent="1" edge="1">
          <mxGeometry width="50" height="50" relative="1" as="geometry">
            <mxPoint x="290" y="1006" as="sourcePoint" />
            <mxPoint x="290" y="100" as="targetPoint" />
          </mxGeometry>
        </mxCell>
        <mxCell id="9vteJf4cT2fO9NjOlLXd-83" value="" style="rounded=1;whiteSpace=wrap;html=1;fillColor=none;strokeColor=#FF2A00;strokeWidth=3;points=[];" parent="1" vertex="1">
          <mxGeometry x="521" y="485.56" width="110" height="60" as="geometry" />
        </mxCell>
        <mxCell id="9vteJf4cT2fO9NjOlLXd-84" value="" style="rounded=1;whiteSpace=wrap;html=1;fillColor=none;strokeColor=#FF2A00;strokeWidth=3;points=[];" parent="1" vertex="1">
          <mxGeometry x="590" y="614" width="100" height="60" as="geometry" />
        </mxCell>
        <mxCell id="9vteJf4cT2fO9NjOlLXd-85" value="" style="rounded=1;whiteSpace=wrap;html=1;fillColor=none;strokeColor=#FF2A00;strokeWidth=3;points=[];" parent="1" vertex="1">
          <mxGeometry x="411.12" y="48" width="33.5" height="32" as="geometry" />
        </mxCell>
        <mxCell id="9vteJf4cT2fO9NjOlLXd-86" value="&lt;font style=&quot;font-size: 15px;&quot;&gt;SLA Violation&lt;br&gt;&lt;/font&gt;" style="text;html=1;strokeColor=none;fillColor=none;align=center;verticalAlign=middle;whiteSpace=wrap;rounded=0;fontStyle=1" parent="1" vertex="1">
          <mxGeometry x="465.12" y="50" width="117.75" height="30" as="geometry" />
        </mxCell>
        <mxCell id="9vteJf4cT2fO9NjOlLXd-87" value="&lt;font style=&quot;font-size: 20px;&quot;&gt;Scheduling based on Inaccurate Prediction&lt;/font&gt;" style="text;html=1;strokeColor=none;fillColor=none;align=center;verticalAlign=middle;whiteSpace=wrap;rounded=0;rotation=0;fontStyle=1" parent="1" vertex="1">
          <mxGeometry x="-307.5" y="203.13" width="210" height="30" as="geometry" />
        </mxCell>
        <mxCell id="9vteJf4cT2fO9NjOlLXd-88" value="&lt;font style=&quot;font-size: 20px;&quot;&gt;(No SLA Violation)&lt;/font&gt;" style="text;html=1;strokeColor=none;fillColor=none;align=center;verticalAlign=middle;whiteSpace=wrap;rounded=0;rotation=0;fontStyle=1" parent="1" vertex="1">
          <mxGeometry x="-298" y="930" width="210" height="30" as="geometry" />
        </mxCell>
        <mxCell id="9vteJf4cT2fO9NjOlLXd-89" value="&lt;font style=&quot;font-size: 20px;&quot;&gt;(75% SLA Violation)&lt;/font&gt;" style="text;html=1;strokeColor=none;fillColor=none;align=center;verticalAlign=middle;whiteSpace=wrap;rounded=0;rotation=0;fontStyle=1" parent="1" vertex="1">
          <mxGeometry x="-298" y="624" width="210" height="30" as="geometry" />
        </mxCell>
        <mxCell id="4uBRh2lthPdTQaNbLI-U-1" value="" style="endArrow=none;dashed=1;html=1;dashPattern=1 3;strokeWidth=2;rounded=0;" parent="1" edge="1">
          <mxGeometry width="50" height="50" relative="1" as="geometry">
            <mxPoint x="49" y="313.13" as="sourcePoint" />
            <mxPoint x="49" y="123.13" as="targetPoint" />
          </mxGeometry>
        </mxCell>
      </root>
    </mxGraphModel>
  </diagram>
</mxfile>
